<mxfile host="app.diagrams.net" modified="2023-07-01T01:35:41.773Z" agent="Mozilla/5.0 (Windows NT 10.0; Win64; x64) AppleWebKit/537.36 (KHTML, like Gecko) Chrome/114.0.0.0 Safari/537.36 Edg/114.0.1823.37" version="21.2.9" etag="5T5GVmadyGua6AmVPcB6" type="github">
  <diagram name="第 1 页" id="h80JcBMm9Q7qqxOCS3X0">
    <mxGraphModel>
      <root>
        <mxCell id="0" />
        <mxCell id="1" parent="0" />
      </root>
    </mxGraphModel>
  </diagram>
</mxfile>
